Coordinates
version=1
nRows=10
nColumns=40
inDegrees=yes

Units are S.I. units (second, meters, Newtons, ...)
Angles are in degrees.

endheader
time	pelvis_tilt	pelvis_list	pelvis_rotation	pelvis_tx	pelvis_ty	pelvis_tz	hip_flexion_r	hip_adduction_r	hip_rotation_r	knee_angle_r	knee_angle_r_beta	ankle_angle_r	subtalar_angle_r	mtp_angle_r	hip_flexion_l	hip_adduction_l	hip_rotation_l	knee_angle_l	knee_angle_l_beta	ankle_angle_l	subtalar_angle_l	mtp_angle_l	lumbar_extension	lumbar_bending	lumbar_rotation	arm_flex_r	arm_add_r	arm_rot_r	elbow_flex_r	pro_sup_r	wrist_flex_r	wrist_dev_r	arm_flex_l	arm_add_l	arm_rot_l	elbow_flex_l	pro_sup_l	wrist_flex_l	wrist_dev_l
     14.02750000	     -4.30146343	     -3.43696759	     -0.17877886	      0.95197759	      0.93277958	      0.41835830	     37.17051251	     -7.29322051	     -5.91836128	     59.26360535	     59.26360535	      2.99180342	    -13.76777946	      1.40456911	     13.27431497	     -4.33292980	     -9.96479962	     19.76621431	     19.76621431	     13.74107427	     -3.99550855	     -4.12856936	    -12.49358296	      1.86173971	      1.94544741	      3.55434014	    -15.68351393	      3.88323830	     70.85783542	     45.42279496	      0.00000000	      0.00000000	     18.38657227	    -13.99797089	     -1.74471908	     51.71546933	     46.47276707	      0.00000000	      0.00000000
     14.03900000	     -4.28531638	     -3.39196029	     -0.22135423	      0.95121672	      0.93282040	      0.41814177	     37.29025426	     -7.41729310	     -6.16482944	     56.11300720	     56.11300720	      2.55948159	    -13.38219784	      1.35837404	     12.47699375	     -4.25430772	    -10.17853343	     19.30636609	     19.30636609	     14.06447404	     -3.59250089	     -4.38941521	    -12.55804372	      1.81814307	      1.89139355	      2.84261288	    -15.81234772	      3.52074840	     66.43704186	     45.56992958	      0.00000000	      0.00000000	     19.43609129	    -14.38527429	     -1.58268330	     53.66054856	     46.51710374	      0.00000000	      0.00000000
     14.05050000	     -4.25809247	     -3.39901948	     -0.24433113	      0.95059196	      0.93283754	      0.41797416	     37.18485385	     -7.48261530	     -6.56036160	     52.62306001	     52.62306001	      2.24040705	    -12.83957235	      1.73777663	     11.63837308	     -4.20703972	    -10.28163985	     18.79872820	     18.79872820	     14.38798462	     -3.30895329	     -4.52895316	    -12.67604988	      1.89617228	      2.21316107	      1.36524953	    -16.49118295	      3.48989712	     63.94411370	     45.64464616	      0.00000000	      0.00000000	     20.76487036	    -14.34216190	     -1.63572525	     55.09660318	     46.55683223	      0.00000000	      0.00000000
     14.06200000	     -4.34674717	     -3.27872475	     -0.28677677	      0.95007934	      0.93257590	      0.41800110	     37.05761363	     -7.60825256	     -6.93860955	     48.87862183	     48.87862183	      1.61552315	    -12.34711799	      1.22931418	     10.89064623	     -4.05508637	    -10.54804999	     18.23920316	     18.23920316	     14.55060135	     -2.89107518	     -5.10750740	    -12.56147843	      1.72886534	      1.87822867	      1.46128726	    -16.03330454	      2.49560667	     57.59036681	     45.87972832	      0.00000000	      0.00000000	     21.38134687	    -15.06239295	     -1.28772909	     57.45900905	     46.59517368	      0.00000000	      0.00000000
     14.07350000	     -4.40959402	     -3.16880013	     -0.32708144	      0.94977209	      0.93229067	      0.41800700	     36.68204589	     -7.69960413	     -7.47487725	     44.83137844	     44.83137844	      1.08100594	    -11.56510895	      0.97818236	     10.04481767	     -3.86632886	    -10.65990092	     17.56333042	     17.56333042	     14.73250820	     -2.63336637	     -5.51815040	    -12.51305498	      1.62550516	      2.01041907	      0.60230193	    -16.30825678	      2.22055677	     53.70772319	     45.99819591	      0.00000000	      0.00000000	     22.16345708	    -15.23149187	     -1.36049561	     59.61504748	     46.66584652	      0.00000000	      0.00000000
     14.08500000	     -4.47641620	     -3.06073467	     -0.36764692	      0.94967474	      0.93190216	      0.41814080	     36.12449743	     -7.73842787	     -8.15547287	     40.58943503	     40.58943503	      0.64950871	    -10.45605853	      0.85545156	      9.16704543	     -3.68457126	    -10.81446557	     16.84512425	     16.84512425	     14.87585646	     -2.34565185	     -5.97865165	    -12.46113707	      1.55289729	      2.12446930	     -0.25055216	    -16.55898984	      1.87167258	     49.93256586	     46.11907574	      0.00000000	      0.00000000	     22.86975383	    -15.37348940	     -1.38452160	     61.66749701	     46.73058264	      0.00000000	      0.00000000
     14.09650000	     -4.53508534	     -3.02193708	     -0.37635640	      0.94977821	      0.93136800	      0.41841184	     35.38464883	     -7.61749088	     -8.92941940	     36.22994869	     36.22994869	      0.42563823	     -9.13202400	      1.39930540	      8.34239391	     -3.59674569	    -10.86974572	     16.27989011	     16.27989011	     15.18314932	     -2.09823925	     -6.21781859	    -12.36518639	      1.58980655	      2.31482025	     -1.67487505	    -17.04912711	      1.80135732	     48.04352808	     46.17560365	      0.00000000	      0.00000000	     23.73309791	    -15.43621053	     -1.50003774	     63.02030001	     46.77369990	      0.00000000	      0.00000000
     14.10800000	     -4.57997915	     -2.77173126	     -0.44497746	      0.95019438	      0.93070571	      0.41881649	     34.55905097	     -7.68310127	     -9.84523808	     31.94808197	     31.94808197	      0.29329897	     -7.09196432	      1.49124387	      7.25707320	     -3.24872386	    -11.07853175	     15.27076796	     15.27076796	     15.13963016	     -1.69467236	     -7.07146948	    -12.29785549	      1.28783279	      2.40325892	     -1.94642544	    -16.86514975	      1.05340512	     42.94063943	     46.36699965	      0.00000000	      0.00000000	     23.93249201	    -15.80076803	     -1.35546527	     65.97493374	     46.84177179	      0.00000000	      0.00000000
     14.11950000	     -4.73223291	     -2.72562494	     -0.47081023	      0.95071250	      0.92970540	      0.41951095	     33.67514670	     -7.33217393	    -10.62920787	     27.61779140	     27.61779140	      0.16922366	     -5.52595614	      2.35530378	      6.53325422	     -3.18258904	    -11.14026331	     14.75514132	     14.75514132	     15.46042227	     -1.51398884	     -7.30084196	    -12.01041878	      1.31731008	      2.47020822	     -3.35419318	    -17.17045800	      1.00098456	     41.63505018	     46.40350535	      0.00000000	      0.00000000	     24.54243241	    -15.90142611	     -1.51770504	     67.11917205	     46.88086912	      0.00000000	      0.00000000
     14.13100000	     -4.46031344	     -2.48752188	     -0.49903433	      0.95185634	      0.92906055	      0.42016785	     32.41450901	     -7.29930116	    -11.90753905	     23.87239133	     23.87239133	      0.53412536	     -2.77418161	      3.46307380	      5.08477142	     -2.87103198	    -11.36546752	     13.82425327	     13.82425327	     15.63523774	     -0.98270907	     -7.84890385	    -12.24051995	      1.06767214	      2.93449616	     -4.59384466	    -17.44730044	      0.68354774	     38.87235399	     46.50246296	      0.00000000	      0.00000000	     24.94074323	    -15.79892890	     -1.54122042	     69.63669818	     46.94048055	      0.00000000	      0.00000000
